<svg width="155" height="79" viewBox="0 0 155 79" fill="none" xmlns="http://www.w3.org/2000/svg">
<path d="M117.484 71.5875C115.716 67.3985 113.149 63.5935 109.928 60.3844C106.717 57.166 102.912 54.6 98.725 52.8281C98.6875 52.8094 98.65 52.8 98.6125 52.7812C104.453 48.5625 108.25 41.6906 108.25 33.9375C108.25 21.0938 97.8437 10.6875 85 10.6875C72.1562 10.6875 61.75 21.0938 61.75 33.9375C61.75 41.6906 65.5469 48.5625 71.3875 52.7906C71.35 52.8094 71.3125 52.8187 71.275 52.8375C67.075 54.6094 63.3062 57.15 60.0719 60.3938C56.8535 63.6053 54.2875 67.4097 52.5156 71.5969C50.7749 75.6961 49.8361 80.091 49.75 84.5437C49.7475 84.6438 49.765 84.7434 49.8016 84.8365C49.8382 84.9297 49.893 85.0146 49.9629 85.0862C50.0328 85.1579 50.1163 85.2148 50.2086 85.2537C50.3008 85.2925 50.3999 85.3125 50.5 85.3125H56.125C56.5375 85.3125 56.8656 84.9844 56.875 84.5813C57.0625 77.3438 59.9687 70.5656 65.1062 65.4281C70.4219 60.1125 77.4812 57.1875 85 57.1875C92.5187 57.1875 99.5781 60.1125 104.894 65.4281C110.031 70.5656 112.937 77.3438 113.125 84.5813C113.134 84.9938 113.462 85.3125 113.875 85.3125H119.5C119.6 85.3125 119.699 85.2925 119.791 85.2537C119.884 85.2148 119.967 85.1579 120.037 85.0862C120.107 85.0146 120.162 84.9297 120.198 84.8365C120.235 84.7434 120.252 84.6438 120.25 84.5437C120.156 80.0625 119.228 75.7031 117.484 71.5875ZM85 50.0625C80.6969 50.0625 76.6469 48.3844 73.6 45.3375C70.5531 42.2906 68.875 38.2406 68.875 33.9375C68.875 29.6344 70.5531 25.5844 73.6 22.5375C76.6469 19.4906 80.6969 17.8125 85 17.8125C89.3031 17.8125 93.3531 19.4906 96.4 22.5375C99.4469 25.5844 101.125 29.6344 101.125 33.9375C101.125 38.2406 99.4469 42.2906 96.4 45.3375C93.3531 48.3844 89.3031 50.0625 85 50.0625Z" fill="#3042E2"/>
<g clip-path="url(#clip0_101_2)">
<mask id="mask0_101_2" style="mask-type:alpha" maskUnits="userSpaceOnUse" x="-7" y="10" width="128" height="77">
<path d="M117.484 71.5875C115.716 67.3985 113.149 63.5935 109.928 60.3844C106.716 57.166 102.912 54.6 98.7248 52.8281C98.6873 52.8094 98.6498 52.8 98.6123 52.7812C104.453 48.5625 108.25 41.6906 108.25 33.9375C108.25 21.0938 97.8435 10.6875 84.9998 10.6875C72.156 10.6875 61.7498 21.0938 61.7498 33.9375C61.7498 41.6906 65.5467 48.5625 71.3873 52.7906C65.106 63.5 56.1248 26.5 47.4999 16.5001C25.4999 14.5 -3.2657 26.2563 -6.50008 29.5C-9.71843 32.7116 4.27176 81.1254 2.49984 85.3125C0.759111 89.4118 49.8359 80.091 49.7498 84.5438C49.7473 84.6438 49.7648 84.7434 49.8014 84.8365C49.838 84.9297 49.8928 85.0146 49.9627 85.0863C50.0326 85.1579 50.1161 85.2148 50.2084 85.2537C50.3006 85.2925 50.3997 85.3125 50.4998 85.3125H56.1248C56.5373 85.3125 56.8654 84.9844 56.8748 84.5813C57.0623 77.3438 59.9685 70.5656 65.106 65.4281C70.4217 60.1125 77.481 57.1875 84.9998 57.1875C92.5185 57.1875 99.5779 60.1125 104.894 65.4281C110.031 70.5656 112.937 77.3438 113.125 84.5813C113.134 84.9938 113.462 85.3125 113.875 85.3125H119.5C119.6 85.3125 119.699 85.2925 119.791 85.2537C119.883 85.2148 119.967 85.1579 120.037 85.0863C120.107 85.0146 120.162 84.9297 120.198 84.8365C120.235 84.7434 120.252 84.6438 120.25 84.5438C120.156 80.0625 119.228 75.7031 117.484 71.5875ZM84.9998 50.0625C80.6967 50.0625 76.6467 48.3844 73.5998 45.3375C70.5529 42.2906 68.8748 38.2406 68.8748 33.9375C68.8748 29.6344 70.5529 25.5844 73.5998 22.5375C76.6467 19.4906 80.6967 17.8125 84.9998 17.8125C89.3029 17.8125 93.3529 19.4906 96.3998 22.5375C99.4466 25.5844 101.125 29.6344 101.125 33.9375C101.125 38.2406 99.4466 42.2906 96.3998 45.3375C93.3529 48.3844 89.3029 50.0625 84.9998 50.0625Z" fill="#3042E2"/>
</mask>
<g mask="url(#mask0_101_2)">
<path d="M62.8784 76.9277C61.4967 73.6551 59.4917 70.6824 56.975 68.1753C54.466 65.661 51.4938 63.6563 48.2226 62.272C48.1933 62.2573 48.164 62.25 48.1347 62.2354C52.6977 58.9395 55.664 53.5708 55.664 47.5137C55.664 37.4795 47.5341 29.3496 37.4999 29.3496C27.4658 29.3496 19.3359 37.4795 19.3359 47.5137C19.3359 53.5708 22.3022 58.9395 26.8652 62.2427C26.8359 62.2573 26.8066 62.2646 26.7773 62.2793C23.496 63.6636 20.5517 65.6484 18.0248 68.1826C15.5105 70.6917 13.5058 73.6638 12.1215 76.9351C10.7616 80.1376 10.0281 83.5711 9.96088 87.0498C9.95892 87.128 9.97263 87.2057 10.0012 87.2785C10.0298 87.3513 10.0726 87.4177 10.1272 87.4736C10.1818 87.5296 10.2471 87.5741 10.3191 87.6044C10.3912 87.6348 10.4686 87.6504 10.5468 87.6504H14.9413C15.2636 87.6504 15.52 87.394 15.5273 87.0791C15.6738 81.4248 17.9443 76.1294 21.9579 72.1157C26.1108 67.9629 31.6259 65.6777 37.4999 65.6777C43.374 65.6777 48.8891 67.9629 53.0419 72.1157C57.0556 76.1294 59.3261 81.4248 59.4726 87.0791C59.4799 87.4014 59.7363 87.6504 60.0585 87.6504H64.4531C64.5313 87.6504 64.6087 87.6348 64.6807 87.6044C64.7528 87.5741 64.818 87.5296 64.8726 87.4736C64.9272 87.4177 64.9701 87.3513 64.9987 87.2785C65.0272 87.2057 65.041 87.128 65.039 87.0498C64.9658 83.5488 64.2407 80.1431 62.8784 76.9277ZM37.4999 60.1113C34.1381 60.1113 30.9741 58.8003 28.5937 56.4199C26.2133 54.0396 24.9023 50.8755 24.9023 47.5137C24.9023 44.1519 26.2133 40.9878 28.5937 38.6074C30.9741 36.2271 34.1381 34.916 37.4999 34.916C40.8618 34.916 44.0258 36.2271 46.4062 38.6074C48.7866 40.9878 50.0976 44.1519 50.0976 47.5137C50.0976 50.8755 48.7866 54.0396 46.4062 56.4199C44.0258 58.8003 40.8618 60.1113 37.4999 60.1113Z" fill="#3042E2"/>
</g>
</g>
<mask id="mask1_101_2" style="mask-type:alpha" maskUnits="userSpaceOnUse" x="102" y="35" width="55" height="55">
<path d="M148.111 76.0137C147.098 73.6137 145.627 71.4338 143.782 69.5952C141.942 67.7514 139.762 66.2813 137.363 65.2661C137.342 65.2554 137.32 65.25 137.299 65.2393C140.645 62.8223 142.82 58.8853 142.82 54.4434C142.82 47.085 136.858 41.123 129.5 41.123C122.141 41.123 116.18 47.085 116.18 54.4434C116.18 58.8853 118.355 62.8223 121.701 65.2446C121.68 65.2554 121.658 65.2607 121.637 65.2715C119.23 66.2866 117.071 67.7422 115.218 69.6006C113.374 71.4405 111.904 73.6202 110.889 76.019C109.892 78.3676 109.354 80.8855 109.305 83.4365C109.303 83.4938 109.313 83.5509 109.334 83.6043C109.355 83.6576 109.387 83.7063 109.427 83.7473C109.467 83.7884 109.514 83.821 109.567 83.8433C109.62 83.8655 109.677 83.877 109.734 83.877H112.957C113.193 83.877 113.381 83.689 113.387 83.458C113.494 79.3115 115.159 75.4282 118.102 72.4849C121.148 69.4395 125.192 67.7637 129.5 67.7637C133.808 67.7637 137.852 69.4395 140.897 72.4849C143.841 75.4282 145.506 79.3115 145.613 83.458C145.619 83.6943 145.807 83.877 146.043 83.877H149.266C149.323 83.877 149.38 83.8655 149.432 83.8433C149.485 83.821 149.533 83.7884 149.573 83.7473C149.613 83.7063 149.645 83.6576 149.666 83.6043C149.687 83.5509 149.697 83.4938 149.695 83.4365C149.641 80.8691 149.11 78.3716 148.111 76.0137ZM129.5 63.6816C127.035 63.6816 124.714 62.7202 122.969 60.9746C121.223 59.229 120.262 56.9087 120.262 54.4434C120.262 51.978 121.223 49.6577 122.969 47.9121C124.714 46.1665 127.035 45.2051 129.5 45.2051C131.965 45.2051 134.286 46.1665 136.031 47.9121C137.777 49.6577 138.738 51.978 138.738 54.4434C138.738 56.9087 137.777 59.229 136.031 60.9746C134.286 62.7202 131.965 63.6816 129.5 63.6816Z" fill="#3042E2"/>
</mask>
<g mask="url(#mask1_101_2)">
<path d="M164.5 72C162.732 67.811 159.721 30.7091 156.5 27.5C153.288 24.2817 102.895 54.9125 98.7077 53.1406C98.6702 53.1219 98.6327 53.1125 98.5952 53.0937C104.436 48.875 108.233 42.0031 108.233 34.25C108.233 21.4062 97.8264 11 84.9827 11C72.1389 11 61.7327 21.4062 61.7327 34.25C61.7327 42.0031 65.5296 48.875 71.3702 53.1031C65.0889 63.8125 56.1077 26.8125 47.4828 16.8126C25.4828 14.8125 -3.28279 26.5688 -6.51717 29.8125C-9.73552 33.0241 4.25467 81.4379 2.48275 85.625C0.742022 89.7243 49.8188 80.4035 49.7327 84.8563C49.7302 84.9563 49.7477 85.0559 49.7843 85.149C49.8209 85.2422 49.8757 85.3271 49.9456 85.3988C50.0155 85.4704 50.099 85.5273 50.1913 85.5662C50.2835 85.605 50.3826 85.625 50.4827 85.625H56.1077C56.5202 85.625 56.8483 85.2969 56.8577 84.8938C57.0452 77.6563 59.9515 70.8781 65.089 65.7406C70.4046 60.425 77.4639 57.5 84.9827 57.5C92.5014 57.5 99.5608 60.425 104.876 65.7406C110.014 70.8781 112.92 77.6563 113.108 84.8938C113.117 85.3063 113.445 85.625 113.858 85.625H119.483C119.583 85.625 119.682 85.605 119.774 85.5662C119.866 85.5273 119.95 85.4704 120.02 85.3988C120.09 85.3271 120.144 85.2422 120.181 85.149C120.218 85.0559 183.267 106.644 150 96C149.906 91.5188 166.244 76.1156 164.5 72ZM84.9827 50.375C80.6796 50.375 76.6296 48.6969 73.5827 45.65C70.5358 42.6031 68.8577 38.5531 68.8577 34.25C68.8577 29.9469 70.5358 25.8969 73.5827 22.85C76.6296 19.8031 80.6796 18.125 84.9827 18.125C89.2858 18.125 93.3358 19.8031 96.3827 22.85C99.4296 25.8969 101.108 29.9469 101.108 34.25C101.108 38.5531 99.4296 42.6031 96.3827 45.65C93.3358 48.6969 89.2858 50.375 84.9827 50.375Z" fill="#3042E2"/>
</g>
<defs>
<clipPath id="clip0_101_2">
<rect width="75" height="75" fill="white" transform="translate(0 21)"/>
</clipPath>
</defs>
</svg>
