<svg width="24" height="25" viewBox="0 0 24 25" fill="none" xmlns="http://www.w3.org/2000/svg">
<path d="M12 23.1233C18.0751 23.1233 23 18.1708 23 12.0616C23 5.95247 18.0751 1 12 1C5.92487 1 1 5.95247 1 12.0616C1 18.1708 5.92487 23.1233 12 23.1233Z" stroke="white" stroke-width="2" stroke-linecap="round" stroke-linejoin="round"/>
<path d="M12.0001 13.2906C14.0251 13.2906 15.6667 11.6398 15.6667 9.60341C15.6667 7.56702 14.0251 5.9162 12.0001 5.9162C9.9751 5.9162 8.3335 7.56702 8.3335 9.60341C8.3335 11.6398 9.9751 13.2906 12.0001 13.2906Z" stroke="white" stroke-width="2" stroke-linecap="round" stroke-linejoin="round"/>
<path d="M4.87207 20.4788C5.17458 19.4666 5.79359 18.5793 6.63726 17.9487C7.48093 17.3181 8.50432 16.9777 9.55562 16.978H14.4445C15.4971 16.9776 16.5218 17.3188 17.3661 17.9509C18.2104 18.583 18.8292 19.4722 19.1305 20.4862" stroke="white" stroke-width="2" stroke-linecap="round" stroke-linejoin="round"/>
</svg>
