<svg width="855" height="853" viewBox="0 0 855 853" fill="none" xmlns="http://www.w3.org/2000/svg">
<path opacity="0.8" fill-rule="evenodd" clip-rule="evenodd" d="M314.552 150.343C377.272 87.1045 487.306 66.1043 567.52 104.816C642.207 140.862 627.533 249.756 669.159 321.482C706.641 386.067 807.938 423.007 794.85 496.526C781.774 569.973 676.992 573.453 616.523 617.148C549.278 665.739 509.393 760.818 426.452 762.729C334.111 764.857 229.346 713.387 197.162 626.812C166.312 543.829 265.834 473.606 287.013 387.644C306.816 307.266 256.258 209.12 314.552 150.343Z" fill="white"/>
<path opacity="0.4" fill-rule="evenodd" clip-rule="evenodd" d="M269.4 173.47C320.5 100.52 425.385 61.1817 510.998 85.7449C590.712 108.616 594.698 218.422 647.874 282.059C695.756 339.361 801.847 358.605 801.403 433.279C800.96 507.88 698.281 529.061 646.089 582.368C588.048 641.649 564.848 742.111 483.429 758.046C392.784 775.788 280.814 742.811 234.427 662.939C189.965 586.382 276.151 500.313 282.461 412.006C288.36 329.435 221.906 241.273 269.4 173.47Z" fill="white"/>
<path fill-rule="evenodd" clip-rule="evenodd" d="M353.044 137.578C423.76 83.4284 535.625 77.5431 609.848 126.775C678.958 172.615 649.652 278.514 681.168 355.222C709.546 424.293 804.898 474.628 781.961 545.693C759.047 616.689 654.76 605.928 588.925 641.019C515.712 680.042 463.302 768.835 380.868 759.481C289.092 749.068 192.274 683.867 172.126 593.727C152.815 507.327 260.94 451.248 293.58 368.952C324.1 292.002 287.317 187.907 353.044 137.578Z" fill="white"/>
<path d="M510.168 508.504C538.73 456.783 549.147 361.059 503.606 303.933C458.065 246.808 392.443 317.443 377.776 364.919C358.892 426.043 334.16 434.01 303.667 491.521C273.174 549.032 337.248 581.841 383.179 574.121C429.111 566.401 481.605 560.226 510.168 508.504Z" fill="#3E6CB0"/>
<path d="M503.606 303.933C549.147 361.059 538.731 456.783 510.168 508.504C481.605 560.226 429.111 566.401 383.18 574.121C337.248 581.841 273.174 549.032 303.667 491.521C334.16 434.01 358.892 426.043 377.776 364.919C386.999 335.065 416.371 296.053 448.228 285.41C390.948 294.841 363.997 324.163 331.458 412.78C331.458 412.78 168.96 590.332 261.209 647.844C280.508 659.875 383.18 718.104 491.254 681.81C542.976 664.441 606.663 605.772 598.171 487.661C589.68 369.55 554.555 282.885 469.253 282.885C481.197 284.196 492.951 290.568 503.606 303.933Z" fill="#668FCA"/>
<path fill-rule="evenodd" clip-rule="evenodd" d="M448.228 285.41C454.817 284.325 461.807 283.504 469.253 282.885C462.249 282.116 455.18 283.088 448.228 285.41Z" fill="#668FCA"/>
<path d="M505.15 373.024C517.115 382.674 513.255 401.973 514.413 408.149C515.571 414.324 518.659 418.956 524.449 412.008C530.239 405.061 536.028 376.498 534.87 354.497C533.712 332.496 501.29 294.284 500.904 286.95C500.518 279.617 497.43 246.036 479.675 236.773C461.92 227.509 444.551 215.544 424.479 231.369C404.408 247.194 402.864 258.774 402.478 267.265C402.092 275.757 403.25 310.495 419.848 328.25C433.125 342.454 439.018 340.087 440.305 337.128L473.113 331.724C468.996 340.859 463.354 358.108 466.165 362.217C471.183 369.55 491.254 363.761 505.15 373.024Z" fill="#232149"/>
<path d="M437.217 339.444C436.059 330.18 435.287 325.162 436.059 315.513C429.497 317.829 426.023 318.987 419.075 317.829C417.531 314.741 418.167 311.79 416.76 308.179C414.966 303.579 413.286 301.232 410.198 297.372C408.389 297.372 407.11 298.144 405.566 297.372C405.566 291.196 406.507 287.491 407.11 281.161C402.864 269.581 405.566 259.932 407.11 252.598L433.357 255.3L473.499 307.407L476.973 333.654L460.761 354.111L436.059 352.567L437.217 339.444Z" fill="#FBBEA3"/>
<path d="M154.292 610.403L138.466 629.316L176.293 633.176L182.082 628.158L154.292 610.403Z" fill="#FBBEA3"/>
<path d="M206.399 611.561L190.96 638.58C196.364 651.317 203.311 653.633 214.119 659.037L235.348 630.86L206.399 611.561Z" fill="#FBBEA3"/>
<path d="M151.59 610.017L185.556 633.948L261.595 530.891C306.755 543.242 308.685 552.12 334.931 552.12C361.178 552.12 414.83 481.871 414.83 481.871L349.985 473.765L253.489 466.432C213.733 509.276 185.942 550.576 151.59 610.017Z" fill="#1C2E5A"/>
<path d="M202.925 610.017L240.366 636.264L312.93 530.891C358.09 543.242 391.671 556.685 431.041 550.576C470.411 544.467 466.165 481.871 466.165 481.871L401.32 473.766L292.087 466.046C252.331 508.89 237.278 550.576 202.925 610.017Z" fill="#223268"/>
<path d="M401.32 473.766L466.165 481.871C473.499 460.256 475.043 447.905 476.201 423.974C493.184 422.044 503.22 429.764 520.975 423.974C522.261 402.745 522.287 357.817 512.097 347.935C501.907 338.054 482.634 332.753 474.271 331.338C468.61 337.9 456.119 349.479 450.726 349.479C438.375 349.479 439.918 339.444 437.217 339.058C434.515 338.672 405.18 342.146 393.601 369.164C384.337 390.779 377.003 403.131 377.775 411.622C382.021 414.71 385.303 411.622 390.127 411.622L375.073 471.911L401.32 473.766Z" fill="#E25044"/>
<path fill-rule="evenodd" clip-rule="evenodd" d="M514.157 401.78C514.195 393.296 514.253 380.367 505.149 373.024C497.927 368.21 489.037 367.461 481.459 366.823C474.456 366.234 468.574 365.739 466.165 362.217C463.353 358.108 468.995 340.859 473.112 331.724V309.337C473.112 306.249 459.984 298.916 436.445 286.95C421.062 279.131 412.9 267.265 402.092 259.16C402.092 244.492 410.909 242.068 424.478 231.369C442.733 216.975 458.753 225.571 474.862 234.214C476.464 235.074 478.067 235.934 479.674 236.773C497.429 246.036 500.517 279.617 500.903 286.95C501.044 289.635 505.478 296.456 511.099 305.105C520.835 320.085 534.135 340.549 534.869 354.497C536.027 376.498 530.238 405.061 524.448 412.008C518.658 418.956 515.57 414.324 514.412 408.149C514.135 406.672 514.145 404.445 514.157 401.78Z" fill="#232149"/>
<path d="M379.319 411.236H395.916L382.793 464.888H358.862C370.442 447.519 373.529 434.009 379.319 411.236Z" fill="#FBBEA3"/>
<path d="M473.113 447.905C473.113 437.483 475.043 430.922 477.359 420.114H512.869C508.238 444.045 506.308 465.274 491.254 474.538C457.855 475.571 437.664 474.146 407.664 472.183C400.192 471.694 393.037 468.946 385.693 467.484C379.655 466.282 372.844 466.432 362.722 466.432L357.319 448.677C378.049 441.767 389.234 448.602 403.026 457.031L403.25 457.168C407.496 457.94 445.323 447.905 473.113 447.905Z" fill="#FBBEA3"/>
<path d="M333.687 377.543C335.818 377.611 337.671 379.022 338.304 381.058L365.424 468.362L427.181 474.537V474.537C427.181 477.238 424.872 479.36 422.181 479.133L367.74 474.537L239.284 468.682C235.07 468.49 231.43 465.674 230.185 461.644L204.994 380.105C203.98 376.825 206.498 373.523 209.929 373.632L333.687 377.543Z" fill="#485A68"/>
<path fill-rule="evenodd" clip-rule="evenodd" d="M390.127 411.622L476.201 423.974C483.362 423.16 489.288 424.062 495.079 424.943C503.02 426.152 509.935 428.292 520.203 424.943C516.729 406.605 469.022 384.063 458.832 374.182C448.642 364.301 447.421 376.369 439.058 374.954C433.397 381.516 456.119 349.479 450.726 349.479C442.231 349.479 440.309 344.732 439.058 341.642C438.49 340.24 438.06 339.178 437.217 339.058C434.515 338.672 405.18 342.146 393.601 369.164C391.133 374.923 388.802 380.024 386.724 384.57C381.005 397.087 377.209 405.393 377.775 411.622C380.529 413.625 382.877 413.03 385.504 412.364C386.927 412.004 388.432 411.622 390.127 411.622Z" fill="#E25044"/>
<path d="M393.601 369.165C384.337 390.78 377.004 403.131 377.776 411.623C382.021 414.71 390.321 412.781 395.145 412.781C400.934 388.078 402.864 364.919 425.637 341.177C415.34 344.412 400.922 352.082 393.601 369.165Z" fill="#C63C31"/>
<ellipse cx="280.122" cy="422.044" rx="11.1935" ry="12.3514" transform="rotate(-26.1552 280.122 422.044)" fill="white"/>
<path d="M173.5 631.855C181.099 642.554 184.036 651.356 184.63 664.191L107.756 668.604C105.662 662.99 104.239 658.32 98.2868 652.605C118.915 640.322 130.468 632.591 143.535 628.992L173.5 631.855Z" fill="#218CC5"/>
<path fill-rule="evenodd" clip-rule="evenodd" d="M176.286 636.03C177.726 638.348 178.946 640.609 179.972 642.881C179.972 642.881 166.299 656.379 143.463 655.554C128.567 655.016 106.643 665.607 106.643 665.607C106.273 664.63 105.893 663.672 105.471 662.721C116.221 657.859 113.165 654.89 137.999 651.86C162.832 648.831 176.286 636.03 176.286 636.03Z" fill="white"/>
<path d="M107.756 668.604C105.663 662.99 104.239 658.32 98.2872 652.605C118.916 640.322 130.468 632.591 143.535 628.992C146.996 626.533 152.62 621.119 150.111 619.587C147.603 618.054 140.78 619.113 133.054 622.233L94.1641 650.799C85.6262 655.442 77.265 649.253 70.5138 663.564C84.4742 669.925 92.3675 668.296 107.756 668.604Z" fill="#E459A1"/>
<path d="M184.63 664.191L107.756 668.604C95.2948 668.032 84.8241 670.574 70.4555 663.455L71.1266 668.932C71.4119 671.26 73.2795 673.08 75.6162 673.287C116.163 676.875 140.126 674.419 180.108 673.583C183.03 673.522 185.301 670.988 185.014 668.079L184.63 664.191Z" fill="white"/>
<path d="M113.73 649.685L105.675 641.677M120.206 644.139L112.599 636.76M128.074 638.552L119.522 631.843M136.653 635.299L126.445 626.926" stroke="white" stroke-width="5" stroke-linecap="round" stroke-linejoin="round"/>
<path d="M218.138 653.246C219.381 666.31 217.532 675.404 211.639 686.82L142.827 652.267C143.816 646.357 144.914 641.6 142.61 633.677C166.616 633.332 180.485 632.401 193.604 635.805L218.138 653.246Z" fill="#218CC5"/>
<path fill-rule="evenodd" clip-rule="evenodd" d="M218.468 658.255C218.559 660.982 218.487 663.55 218.241 666.031C218.241 666.031 199.656 670.9 180.281 658.785C167.643 650.883 143.359 649.115 143.359 649.115C143.526 648.083 143.675 647.063 143.784 646.029C155.526 647.182 154.361 643.084 177.39 652.857C200.42 662.629 218.468 658.255 218.468 658.255Z" fill="white"/>
<path d="M142.827 652.267C143.816 646.357 144.914 641.6 142.61 633.677C166.616 633.332 180.485 632.401 193.604 635.806C197.831 635.404 205.406 633.52 203.998 630.94C202.589 628.36 196.149 625.87 187.897 624.717L139.939 630.054C130.223 629.815 122.465 629.777 110.955 635.137L142.827 652.267Z" fill="#E459A1"/>
<path d="M211.639 686.821L142.827 652.267L110.955 635.137L109.536 637.617C108.131 640.072 109.04 643.203 111.541 644.523L203.094 692.847C205.643 694.192 208.798 693.11 209.984 690.483L211.639 686.821Z" fill="white"/>
<path d="M157.448 638.857L154.467 627.896M165.828 637.284L162.92 627.092M175.434 636.37L171.374 626.288M184.491 637.835L179.827 625.484" stroke="white" stroke-width="5" stroke-linecap="round" stroke-linejoin="round"/>
<circle opacity="0.4" r="8" transform="matrix(-0.836913 -0.547337 -0.547337 0.836913 692.136 491.914)" fill="#3042E2"/>
<circle opacity="0.4" r="8" transform="matrix(-0.836913 -0.547337 -0.547337 0.836913 679 512)" fill="#3042E2"/>
<circle opacity="0.4" r="8" transform="matrix(-0.836913 -0.547337 -0.547337 0.836913 665.864 532.086)" fill="#3042E2"/>
<circle opacity="0.4" r="8" transform="matrix(-0.836913 -0.547337 -0.547337 0.836913 658.914 498.864)" fill="#3042E2"/>
<circle opacity="0.4" r="8" transform="matrix(-0.836913 -0.547337 -0.547337 0.836913 699.086 525.136)" fill="#3042E2"/>
<circle opacity="0.4" r="6.66697" transform="matrix(-0.664723 0.74709 0.74709 0.664723 636.781 394.428)" fill="#3042E2"/>
<circle opacity="0.4" r="6.66697" transform="matrix(-0.664723 0.74709 0.74709 0.664723 651.723 407.723)" fill="#3042E2"/>
<circle opacity="0.4" r="6.66697" transform="matrix(-0.664723 0.74709 0.74709 0.664723 666.666 421.018)" fill="#3042E2"/>
<circle opacity="0.4" r="6.66697" transform="matrix(-0.664723 0.74709 0.74709 0.664723 638.428 422.666)" fill="#3042E2"/>
<circle opacity="0.4" r="6.66697" transform="matrix(-0.664723 0.74709 0.74709 0.664723 665.018 392.781)" fill="#3042E2"/>
<circle opacity="0.4" r="5.43936" transform="matrix(-0.641068 0.767484 0.767484 0.641068 605.123 311.186)" fill="#3042E2"/>
<circle opacity="0.4" r="5.43936" transform="matrix(-0.641068 0.767484 0.767484 0.641068 617.647 321.647)" fill="#3042E2"/>
<circle opacity="0.4" r="5.43936" transform="matrix(-0.641068 0.767484 0.767484 0.641068 630.17 332.108)" fill="#3042E2"/>
<circle opacity="0.4" r="5.43936" transform="matrix(-0.641068 0.767484 0.767484 0.641068 607.186 334.17)" fill="#3042E2"/>
<circle opacity="0.4" r="5.43936" transform="matrix(-0.641068 0.767484 0.767484 0.641068 628.108 309.123)" fill="#3042E2"/>
</svg>
