<svg width="301" height="868" viewBox="0 0 301 868" fill="none" xmlns="http://www.w3.org/2000/svg">
<rect opacity="0.4" x="127.5" y="-93.5" width="245" height="555" rx="122.5" stroke="white" stroke-width="5"/>
<rect opacity="0.4" x="2.5" y="310.5" width="245" height="555" rx="122.5" stroke="white" stroke-width="5"/>
<circle opacity="0.4" r="8" transform="matrix(-1 0 0 1 74 221)" fill="white"/>
<circle opacity="0.4" r="8" transform="matrix(-1 0 0 1 301 502)" fill="white"/>
<circle opacity="0.4" r="8" transform="matrix(-1 0 0 1 74 245)" fill="white"/>
<circle opacity="0.4" r="8" transform="matrix(-1 0 0 1 301 526)" fill="white"/>
<circle opacity="0.4" r="8" transform="matrix(-1 0 0 1 74 269)" fill="white"/>
<circle opacity="0.4" r="8" transform="matrix(-1 0 0 1 301 550)" fill="white"/>
<circle opacity="0.4" r="8" transform="matrix(-1 0 0 1 50 245)" fill="white"/>
<circle opacity="0.4" r="8" transform="matrix(-1 0 0 1 277 526)" fill="white"/>
<circle opacity="0.4" r="8" transform="matrix(-1 0 0 1 98 245)" fill="white"/>
</svg>
