<svg width="401" height="187" viewBox="0 0 401 187" fill="none" xmlns="http://www.w3.org/2000/svg">
<path d="M265.666 172.257C261.41 162.178 255.235 153.022 247.483 145.3C239.756 137.556 230.601 131.381 220.526 127.118C220.436 127.073 220.345 127.05 220.255 127.005C234.309 116.854 243.445 100.318 243.445 81.6621C243.445 50.7568 218.405 25.7168 187.5 25.7168C156.595 25.7168 131.555 50.7568 131.555 81.6621C131.555 100.318 140.691 116.854 154.745 127.027C154.655 127.073 154.565 127.095 154.474 127.14C144.368 131.404 135.299 137.517 127.517 145.322C119.773 153.05 113.598 162.205 109.335 172.28C105.146 182.144 102.887 192.719 102.68 203.433C102.674 203.674 102.716 203.914 102.804 204.138C102.892 204.362 103.024 204.566 103.192 204.739C103.36 204.911 103.561 205.048 103.783 205.142C104.005 205.235 104.244 205.283 104.484 205.283H118.02C119.012 205.283 119.802 204.494 119.824 203.524C120.275 186.108 127.269 169.799 139.631 157.436C152.421 144.646 169.408 137.607 187.5 137.607C205.592 137.607 222.579 144.646 235.369 157.436C247.732 169.799 254.725 186.108 255.176 203.524C255.198 204.516 255.988 205.283 256.981 205.283H270.516C270.757 205.283 270.995 205.235 271.217 205.142C271.439 205.048 271.64 204.911 271.808 204.739C271.976 204.566 272.108 204.362 272.196 204.138C272.284 203.914 272.326 203.674 272.32 203.433C272.095 192.65 269.861 182.161 265.666 172.257ZM187.5 120.463C177.146 120.463 167.4 116.425 160.069 109.093C152.737 101.762 148.699 92.0165 148.699 81.6621C148.699 71.3077 152.737 61.5624 160.069 54.2309C167.4 46.8993 177.146 42.8613 187.5 42.8613C197.854 42.8613 207.6 46.8993 214.931 54.2309C222.263 61.5624 226.301 71.3077 226.301 81.6621C226.301 92.0165 222.263 101.762 214.931 109.093C207.6 116.425 197.854 120.463 187.5 120.463Z" fill="white"/>
<path d="M372.878 186.752C369.672 179.16 365.021 172.263 359.182 166.447C353.361 160.613 346.466 155.963 338.876 152.751C338.809 152.717 338.741 152.7 338.673 152.666C349.259 145.02 356.141 132.564 356.141 118.512C356.141 95.2324 337.279 76.3711 314 76.3711C290.721 76.3711 271.859 95.2324 271.859 118.512C271.859 132.564 278.741 145.02 289.327 152.683C289.259 152.717 289.191 152.734 289.123 152.768C281.511 155.979 274.68 160.584 268.818 166.464C262.984 172.285 258.334 179.18 255.122 186.769C251.967 194.199 250.265 202.165 250.109 210.236C250.105 210.417 250.137 210.597 250.203 210.766C250.269 210.935 250.369 211.089 250.495 211.219C250.622 211.349 250.773 211.452 250.941 211.522C251.108 211.593 251.287 211.629 251.469 211.629H261.664C262.412 211.629 263.006 211.034 263.023 210.304C263.363 197.186 268.631 184.9 277.943 175.588C287.577 165.954 300.372 160.652 314 160.652C327.628 160.652 340.423 165.954 350.057 175.588C359.369 184.9 364.637 197.186 364.976 210.304C364.993 211.051 365.588 211.629 366.336 211.629H376.531C376.713 211.629 376.892 211.593 377.059 211.522C377.227 211.452 377.378 211.349 377.505 211.219C377.631 211.089 377.731 210.935 377.797 210.766C377.863 210.597 377.895 210.417 377.891 210.236C377.721 202.113 376.038 194.212 372.878 186.752ZM314 147.738C306.201 147.738 298.86 144.697 293.337 139.174C287.815 133.652 284.773 126.311 284.773 118.512C284.773 110.712 287.815 103.372 293.337 97.8492C298.86 92.3268 306.201 89.2852 314 89.2852C321.799 89.2852 329.14 92.3268 334.662 97.8492C340.185 103.372 343.226 110.712 343.226 118.512C343.226 126.311 340.185 133.652 334.662 139.174C329.14 144.697 321.799 147.738 314 147.738Z" fill="white"/>
<path d="M120.727 194.381C118.074 188.098 114.224 182.39 109.392 177.577C104.575 172.749 98.8683 168.9 92.5876 166.242C92.5313 166.214 92.4751 166.2 92.4189 166.172C101.18 159.844 106.875 149.536 106.875 137.906C106.875 118.641 91.2657 103.031 72.0001 103.031C52.7345 103.031 37.1251 118.641 37.1251 137.906C37.1251 149.536 42.8204 159.844 51.5814 166.186C51.5251 166.214 51.4689 166.228 51.4126 166.256C45.1126 168.914 39.4595 172.725 34.6079 177.591C29.7804 182.408 25.9314 188.115 23.2735 194.395C20.6625 200.544 19.2542 207.137 19.1251 213.816C19.1214 213.966 19.1477 214.115 19.2025 214.255C19.2574 214.395 19.3397 214.522 19.4445 214.629C19.5493 214.737 19.6746 214.822 19.813 214.881C19.9513 214.939 20.1 214.969 20.2501 214.969H28.6876C29.3064 214.969 29.7985 214.477 29.8126 213.872C30.0939 203.016 34.4532 192.848 42.1595 185.142C50.1329 177.169 60.722 172.781 72.0001 172.781C83.2782 172.781 93.8673 177.169 101.841 185.142C109.547 192.848 113.906 203.016 114.188 213.872C114.202 214.491 114.694 214.969 115.313 214.969H123.75C123.9 214.969 124.049 214.939 124.187 214.881C124.326 214.822 124.451 214.737 124.556 214.629C124.661 214.522 124.743 214.395 124.798 214.255C124.853 214.115 124.879 213.966 124.875 213.816C124.734 207.094 123.342 200.555 120.727 194.381ZM72.0001 162.094C65.5454 162.094 59.4704 159.577 54.9001 155.006C50.3298 150.436 47.8126 144.361 47.8126 137.906C47.8126 131.452 50.3298 125.377 54.9001 120.806C59.4704 116.236 65.5454 113.719 72.0001 113.719C78.4548 113.719 84.5298 116.236 89.1001 120.806C93.6704 125.377 96.1876 131.452 96.1876 137.906C96.1876 144.361 93.6704 150.436 89.1001 155.006C84.5298 159.577 78.4548 162.094 72.0001 162.094Z" fill="white"/>
</svg>
