<svg width="247" height="333" viewBox="0 0 247 333" fill="none" xmlns="http://www.w3.org/2000/svg">
<g opacity="0.2">
<ellipse cx="4.23158" cy="183.88" rx="16.704" ry="16.9669" transform="rotate(-90 4.23158 183.88)" fill="white"/>
<ellipse cx="3.96693" cy="227.704" rx="16.704" ry="16.9669" transform="rotate(-90 3.96693 227.704)" fill="white"/>
<ellipse cx="3.96693" cy="271.704" rx="16.704" ry="16.9669" transform="rotate(-90 3.96693 271.704)" fill="white"/>
<ellipse cx="3.96693" cy="315.704" rx="16.704" ry="16.9669" transform="rotate(-90 3.96693 315.704)" fill="white"/>
<ellipse cx="48.9669" cy="228.704" rx="16.704" ry="16.9669" transform="rotate(-90 48.9669 228.704)" fill="white"/>
<ellipse cx="49.9669" cy="183.704" rx="16.704" ry="16.9669" transform="rotate(-90 49.9669 183.704)" fill="white"/>
<ellipse cx="49.4767" cy="139.336" rx="16.704" ry="16.9669" transform="rotate(-90 49.4767 139.336)" fill="white"/>
<ellipse cx="94.7218" cy="139.336" rx="16.704" ry="16.9669" transform="rotate(-90 94.7218 139.336)" fill="white"/>
<ellipse cx="4.23158" cy="139.336" rx="16.704" ry="16.9669" transform="rotate(-90 4.23158 139.336)" fill="white"/>
<ellipse cx="49.4767" cy="94.7921" rx="16.704" ry="16.9669" transform="rotate(-90 49.4767 94.7921)" fill="white"/>
<ellipse cx="94.7218" cy="94.7921" rx="16.704" ry="16.9669" transform="rotate(-90 94.7218 94.7921)" fill="white"/>
<ellipse cx="139.967" cy="94.7921" rx="16.704" ry="16.9669" transform="rotate(-90 139.967 94.7921)" fill="white"/>
<ellipse cx="4.23158" cy="94.7921" rx="16.704" ry="16.9669" transform="rotate(-90 4.23158 94.7921)" fill="white"/>
<ellipse cx="49.4767" cy="50.2479" rx="16.704" ry="16.9669" transform="rotate(-90 49.4767 50.2479)" fill="white"/>
<ellipse cx="94.7218" cy="50.2479" rx="16.704" ry="16.9669" transform="rotate(-90 94.7218 50.2479)" fill="white"/>
<ellipse cx="139.967" cy="50.2479" rx="16.704" ry="16.9669" transform="rotate(-90 139.967 50.2479)" fill="white"/>
<ellipse cx="184.967" cy="50.88" rx="16.704" ry="16.9669" transform="rotate(-90 184.967 50.88)" fill="white"/>
<ellipse cx="184.967" cy="5.87998" rx="16.704" ry="16.9669" transform="rotate(-90 184.967 5.87998)" fill="white"/>
<ellipse cx="229.967" cy="6.70396" rx="16.704" ry="16.9669" transform="rotate(-90 229.967 6.70396)" fill="white"/>
<ellipse cx="4.23158" cy="50.2479" rx="16.704" ry="16.9669" transform="rotate(-90 4.23158 50.2479)" fill="white"/>
<ellipse cx="49.4767" cy="5.70396" rx="16.704" ry="16.9669" transform="rotate(-90 49.4767 5.70396)" fill="white"/>
<ellipse cx="94.7218" cy="5.70396" rx="16.704" ry="16.9669" transform="rotate(-90 94.7218 5.70396)" fill="white"/>
<ellipse cx="139.967" cy="5.70396" rx="16.704" ry="16.9669" transform="rotate(-90 139.967 5.70396)" fill="white"/>
<ellipse cx="4.23158" cy="5.70396" rx="16.704" ry="16.9669" transform="rotate(-90 4.23158 5.70396)" fill="white"/>
</g>
</svg>
